<?xml version="1.0" encoding="UTF-8" standalone="no"?>
<!DOCTYPE svg PUBLIC "-//W3C//DTD SVG 1.1//EN"
 "http://www.w3.org/Graphics/SVG/1.1/DTD/svg11.dtd">
<!-- Generated by graphviz version 2.36.0 (20140111.2315)
 -->
<!-- Title: DB4Sci_Arch Pages: 1 -->
<svg width="474pt" height="276pt"
 viewBox="0.00 0.00 474.00 276.00" xmlns="http://www.w3.org/2000/svg" xmlns:xlink="http://www.w3.org/1999/xlink">
<g id="graph0" class="graph" transform="scale(1 1) rotate(0) translate(4 272)">
<title>DB4Sci_Arch</title>
<polygon fill="white" stroke="none" points="-4,4 -4,-272 470,-272 470,4 -4,4"/>
<g id="clust2" class="cluster"><title>cluster_1</title>
<path fill="#e7e6e6" stroke="black" d="M126,-8C126,-8 446,-8 446,-8 452,-8 458,-14 458,-20 458,-20 458,-248 458,-248 458,-254 452,-260 446,-260 446,-260 126,-260 126,-260 120,-260 114,-254 114,-248 114,-248 114,-20 114,-20 114,-14 120,-8 126,-8"/>
<text text-anchor="middle" x="167.022" y="-232" font-family="Helvetica,sans-Serif" font-size="30.00">docker</text>
</g>
<!-- Users -->
<g id="node1" class="node"><title>Users</title>
<ellipse fill="#39b6b9" stroke="black" cx="43" cy="-145" rx="30.4949" ry="18"/>
<text text-anchor="middle" x="43" y="-140.8" font-family="Times,serif" font-size="14.00">Users</text>
</g>
<!-- nginx -->
<g id="node9" class="node"><title>nginx</title>
<polygon fill="#187d80" stroke="black" points="193.707,-159 122.293,-159 122.293,-123 193.707,-123 193.707,-159"/>
<text text-anchor="middle" x="158" y="-143.8" font-family="Times,serif" font-size="14.00">nginx</text>
<text text-anchor="middle" x="158" y="-129.8" font-family="Times,serif" font-size="14.00">Container</text>
</g>
<!-- Users&#45;&gt;nginx -->
<g id="edge7" class="edge"><title>Users&#45;&gt;nginx</title>
<path fill="none" stroke="black" d="M73.3944,-143.959C88.3041,-143.432 106.514,-142.787 122.128,-142.234"/>
</g>
<!-- adauth -->
<g id="node2" class="node"><title>adauth</title>
<ellipse fill="#8faadc" stroke="black" cx="43" cy="-91" rx="42.0889" ry="18"/>
<text text-anchor="middle" x="43" y="-86.8" font-family="Times,serif" font-size="14.00">AD Auth</text>
</g>
<!-- dbaas -->
<g id="node3" class="node"><title>dbaas</title>
<polygon fill="#89c348" stroke="black" points="244.831,-78 244.831,-136 305.169,-136 305.169,-78 244.831,-78"/>
<text text-anchor="middle" x="275" y="-120.8" font-family="Times,serif" font-size="14.00">uwsgiZ</text>
<polyline fill="none" stroke="black" points="244.831,-114 305.169,-114 "/>
<text text-anchor="middle" x="275" y="-98.8" font-family="Times,serif" font-size="14.00">DB4Sci</text>
<text text-anchor="middle" x="275" y="-84.8" font-family="Times,serif" font-size="14.00">Flask</text>
</g>
<!-- adauth&#45;&gt;dbaas -->
<g id="edge8" class="edge"><title>adauth&#45;&gt;dbaas</title>
<path fill="none" stroke="black" d="M85.0134,-93.8975C131.108,-97.0764 203.951,-102.1 244.749,-104.914"/>
</g>
<!-- mydb_admin -->
<g id="node4" class="node"><title>mydb_admin</title>
<polygon fill="lightblue" stroke="black" points="319.883,-206 230.117,-206 230.117,-170 319.883,-170 319.883,-206"/>
<text text-anchor="middle" x="275" y="-190.8" font-family="Times,serif" font-size="14.00">PostgreSQL</text>
<text text-anchor="middle" x="275" y="-176.8" font-family="Times,serif" font-size="14.00">mydb_admin</text>
</g>
<!-- dbaas&#45;&gt;mydb_admin -->
<g id="edge2" class="edge"><title>dbaas:f0&#45;&gt;mydb_admin</title>
<path fill="none" stroke="black" d="M281.455,-159.7C281.893,-150.898 281.843,-141.199 281.304,-132.604"/>
<polygon fill="black" stroke="black" points="277.951,-159.62 280.678,-169.858 284.931,-160.154 277.951,-159.62"/>
</g>
<!-- db1 -->
<g id="node5" class="node"><title>db1</title>
<polygon fill="#0399d0" stroke="black" points="450,-52 356,-52 356,-16 450,-16 450,-52"/>
<text text-anchor="middle" x="403" y="-29.8" font-family="Times,serif" font-size="14.00">PostgreSQL</text>
</g>
<!-- dbaas&#45;&gt;db1 -->
<g id="edge6" class="edge"><title>dbaas:f2&#45;&gt;db1:w</title>
<path fill="none" stroke="black" d="M306,-96C306,-96 356,-34 356,-34"/>
</g>
<!-- db2 -->
<g id="node6" class="node"><title>db2</title>
<polygon fill="#ff7156" stroke="black" points="450,-106 356,-106 356,-70 450,-70 450,-106"/>
<text text-anchor="middle" x="403" y="-83.8" font-family="Times,serif" font-size="14.00">MariaDB</text>
</g>
<!-- dbaas&#45;&gt;db2 -->
<g id="edge5" class="edge"><title>dbaas:f2&#45;&gt;db2:w</title>
<path fill="none" stroke="black" d="M306,-96C306,-96 356,-88 356,-88"/>
</g>
<!-- db3 -->
<g id="node7" class="node"><title>db3</title>
<polygon fill="#62bdcf" stroke="black" points="450,-160 356,-160 356,-124 450,-124 450,-160"/>
<text text-anchor="middle" x="403" y="-137.8" font-family="Times,serif" font-size="14.00">Mongo</text>
</g>
<!-- dbaas&#45;&gt;db3 -->
<g id="edge4" class="edge"><title>dbaas:f2&#45;&gt;db3:w</title>
<path fill="none" stroke="black" d="M306,-96C306,-96 356,-142 356,-142"/>
</g>
<!-- db4 -->
<g id="node8" class="node"><title>db4</title>
<polygon fill="#548235" stroke="black" points="450,-214 356,-214 356,-178 450,-178 450,-214"/>
<text text-anchor="middle" x="403" y="-191.8" font-family="Times,serif" font-size="14.00">Neo4j</text>
</g>
<!-- dbaas&#45;&gt;db4 -->
<g id="edge3" class="edge"><title>dbaas:f2&#45;&gt;db4:w</title>
<path fill="none" stroke="black" d="M306,-96C306,-96 356,-196 356,-196"/>
</g>
<!-- nginx&#45;&gt;dbaas -->
<g id="edge1" class="edge"><title>nginx&#45;&gt;dbaas:f0</title>
<path fill="none" stroke="black" d="M194.063,-134.4C217.478,-129.992 244,-125 244,-125"/>
</g>
</g>
</svg>
