<?xml version="1.0" encoding="UTF-8" standalone="no"?>
<!DOCTYPE svg PUBLIC "-//W3C//DTD SVG 1.1//EN"
 "http://www.w3.org/Graphics/SVG/1.1/DTD/svg11.dtd">
<!-- Generated by graphviz version 2.36.0 (20140111.2315)
 -->
<!-- Title: MyDB_Arch Pages: 1 -->
<svg width="420pt" height="287pt"
 viewBox="0.00 0.00 420.00 287.00" xmlns="http://www.w3.org/2000/svg" xmlns:xlink="http://www.w3.org/1999/xlink">
<g id="graph0" class="graph" transform="scale(1 1) rotate(0) translate(4 283)">
<title>MyDB_Arch</title>
<polygon fill="white" stroke="none" points="-4,4 -4,-283 416,-283 416,4 -4,4"/>
<g id="clust2" class="cluster"><title>cluster_1</title>
<polygon fill="#0db7ed" stroke="black" points="86,-8 86,-271 404,-271 404,-8 86,-8"/>
<text text-anchor="middle" x="139.5" y="-243" font-family="Helvetica,sans-Serif" font-size="30.00">docker</text>
</g>
<!-- https -->
<g id="node1" class="node"><title>https</title>
<ellipse fill="none" stroke="black" cx="29" cy="-121" rx="28.6953" ry="28.6953"/>
<text text-anchor="middle" x="29" y="-117.3" font-family="Times,serif" font-size="14.00">https</text>
</g>
<!-- nginx -->
<g id="node8" class="node"><title>nginx</title>
<polygon fill="none" stroke="black" points="148,-139 94,-139 94,-103 148,-103 148,-139"/>
<text text-anchor="middle" x="121" y="-117.3" font-family="Times,serif" font-size="14.00">nginx</text>
</g>
<!-- https&#45;&gt;nginx -->
<g id="edge7" class="edge"><title>https&#45;&gt;nginx</title>
<path fill="none" stroke="black" d="M68.2616,-121C73.3894,-121 78.6368,-121 83.729,-121"/>
<polygon fill="black" stroke="black" points="67.9833,-117.5 57.9832,-121 67.9832,-124.5 67.9833,-117.5"/>
<polygon fill="black" stroke="black" points="83.8758,-124.5 93.8757,-121 83.8757,-117.5 83.8758,-124.5"/>
</g>
<!-- dbaas -->
<g id="node2" class="node"><title>dbaas</title>
<polygon fill="none" stroke="black" points="201.5,-86 201.5,-132 256.5,-132 256.5,-86 201.5,-86"/>
<text text-anchor="middle" x="229" y="-116.8" font-family="Times,serif" font-size="14.00">uwsgi</text>
<polyline fill="none" stroke="black" points="201.5,-109 256.5,-109 "/>
<text text-anchor="middle" x="229" y="-93.8" font-family="Times,serif" font-size="14.00">MyDB</text>
</g>
<!-- mydb_admin -->
<g id="node3" class="node"><title>mydb_admin</title>
<polygon fill="lightblue" stroke="black" points="274,-215.5 184,-215.5 184,-162.5 274,-162.5 274,-215.5"/>
<text text-anchor="middle" x="229" y="-200.3" font-family="Times,serif" font-size="14.00">PostgreSQL</text>
<text text-anchor="middle" x="229" y="-185.3" font-family="Times,serif" font-size="14.00">mydb_admin</text>
<text text-anchor="middle" x="229" y="-170.3" font-family="Times,serif" font-size="14.00">Port 32009</text>
</g>
<!-- dbaas&#45;&gt;mydb_admin -->
<g id="edge2" class="edge"><title>dbaas:f2:s&#45;&gt;mydb_admin</title>
<path fill="none" stroke="black" d="M235.462,-160.914C236.02,-149.709 235.767,-137.052 234.704,-127.161"/>
<polygon fill="black" stroke="black" points="231.958,-160.836 234.678,-171.075 238.937,-161.374 231.958,-160.836"/>
</g>
<!-- db1 -->
<g id="node4" class="node"><title>db1</title>
<polygon fill="lightblue" stroke="black" points="395.5,-54 310.5,-54 310.5,-16 395.5,-16 395.5,-54"/>
<text text-anchor="middle" x="353" y="-38.8" font-family="Times,serif" font-size="14.00">PostgreSQL</text>
<text text-anchor="middle" x="353" y="-23.8" font-family="Times,serif" font-size="14.00">Port 32010</text>
</g>
<!-- dbaas&#45;&gt;db1 -->
<g id="edge6" class="edge"><title>dbaas:f2&#45;&gt;db1</title>
<path fill="none" stroke="black" d="M258,-97C258.443,-97 288.581,-77.0826 314.611,-59.8257"/>
<polygon fill="black" stroke="black" points="316.832,-62.552 323.232,-54.1079 312.963,-56.7184 316.832,-62.552"/>
</g>
<!-- db2 -->
<g id="node5" class="node"><title>db2</title>
<polygon fill="#ff7256" stroke="black" points="392,-110 314,-110 314,-72 392,-72 392,-110"/>
<text text-anchor="middle" x="353" y="-94.8" font-family="Times,serif" font-size="14.00">MariaDB</text>
<text text-anchor="middle" x="353" y="-79.8" font-family="Times,serif" font-size="14.00">Port 32011</text>
</g>
<!-- dbaas&#45;&gt;db2 -->
<g id="edge5" class="edge"><title>dbaas:f2&#45;&gt;db2</title>
<path fill="none" stroke="black" d="M258,-97C272.738,-97 288.749,-96.2564 303.311,-95.2927"/>
<polygon fill="black" stroke="black" points="303.892,-98.7603 313.618,-94.5596 303.395,-91.7779 303.892,-98.7603"/>
</g>
<!-- db3 -->
<g id="node6" class="node"><title>db3</title>
<polygon fill="lightgreen" stroke="black" points="392,-166 314,-166 314,-128 392,-128 392,-166"/>
<text text-anchor="middle" x="353" y="-150.8" font-family="Times,serif" font-size="14.00">Mongo</text>
<text text-anchor="middle" x="353" y="-135.8" font-family="Times,serif" font-size="14.00">Port 32012</text>
</g>
<!-- dbaas&#45;&gt;db3 -->
<g id="edge4" class="edge"><title>dbaas:f2&#45;&gt;db3</title>
<path fill="none" stroke="black" d="M258,-97C269.969,-97 293.882,-109.795 314.594,-122.439"/>
<polygon fill="black" stroke="black" points="312.89,-125.501 323.229,-127.812 316.587,-119.558 312.89,-125.501"/>
</g>
<!-- db4 -->
<g id="node7" class="node"><title>db4</title>
<polygon fill="#66b245" stroke="black" points="392,-222 314,-222 314,-184 392,-184 392,-222"/>
<text text-anchor="middle" x="353" y="-206.8" font-family="Times,serif" font-size="14.00">Neo4j</text>
<text text-anchor="middle" x="353" y="-191.8" font-family="Times,serif" font-size="14.00">Port 32013</text>
</g>
<!-- dbaas&#45;&gt;db4 -->
<g id="edge3" class="edge"><title>dbaas:f2&#45;&gt;db4</title>
<path fill="none" stroke="black" d="M258,-97C299.664,-97 280.539,-145.539 310,-175 310.775,-175.775 311.574,-176.54 312.393,-177.296"/>
<polygon fill="black" stroke="black" points="310.278,-180.089 320.199,-183.806 314.761,-174.713 310.278,-180.089"/>
</g>
<!-- nginx&#45;&gt;dbaas -->
<g id="edge1" class="edge"><title>nginx&#45;&gt;dbaas:f0</title>
<path fill="none" stroke="black" d="M158.115,-121C168.104,-121 179.153,-121 189.871,-121"/>
<polygon fill="black" stroke="black" points="158,-117.5 148,-121 158,-124.5 158,-117.5"/>
<polygon fill="black" stroke="black" points="190,-124.5 200,-121 190,-117.5 190,-124.5"/>
</g>
</g>
</svg>
