<?xml version="1.0" encoding="UTF-8" standalone="no"?>
<!DOCTYPE svg PUBLIC "-//W3C//DTD SVG 1.1//EN"
 "http://www.w3.org/Graphics/SVG/1.1/DTD/svg11.dtd">
<!-- Generated by graphviz version 2.36.0 (20140111.2315)
 -->
<!-- Title: DB4Sci_Arch Pages: 1 -->
<svg width="462pt" height="360pt"
 viewBox="0.00 0.00 462.00 360.00" xmlns="http://www.w3.org/2000/svg" xmlns:xlink="http://www.w3.org/1999/xlink">
<g id="graph0" class="graph" transform="scale(1 1) rotate(0) translate(4 356)">
<title>DB4Sci_Arch</title>
<polygon fill="white" stroke="none" points="-4,4 -4,-356 458,-356 458,4 -4,4"/>
<g id="clust3" class="cluster"><title>cluster_1</title>
<path fill="#0db7ed" stroke="black" d="M107,-92C107,-92 434,-92 434,-92 440,-92 446,-98 446,-104 446,-104 446,-332 446,-332 446,-338 440,-344 434,-344 434,-344 107,-344 107,-344 101,-344 95,-338 95,-332 95,-332 95,-104 95,-104 95,-98 101,-92 107,-92"/>
<text text-anchor="middle" x="148.022" y="-316" font-family="Helvetica,sans-Serif" font-size="30.00">docker</text>
</g>
<!-- Users -->
<g id="node1" class="node"><title>Users</title>
<ellipse fill="none" stroke="black" cx="30" cy="-201" rx="30.4949" ry="30.4949"/>
<text text-anchor="middle" x="30" y="-196.8" font-family="Times,serif" font-size="14.00">Users</text>
</g>
<!-- nginx -->
<g id="node9" class="node"><title>nginx</title>
<polygon fill="teal" stroke="black" points="174.707,-219 103.293,-219 103.293,-183 174.707,-183 174.707,-219"/>
<text text-anchor="middle" x="139" y="-203.8" font-family="Times,serif" font-size="14.00">nginx</text>
<text text-anchor="middle" x="139" y="-189.8" font-family="Times,serif" font-size="14.00">Container</text>
</g>
<!-- Users&#45;&gt;nginx -->
<g id="edge7" class="edge"><title>Users&#45;&gt;nginx</title>
<path fill="none" stroke="black" d="M60.5215,-201C73.7591,-201 89.4662,-201 103.266,-201"/>
</g>
<!-- adauth -->
<g id="node2" class="node"><title>adauth</title>
<ellipse fill="none" stroke="black" cx="139" cy="-42" rx="42.0889" ry="42.0889"/>
<text text-anchor="middle" x="139" y="-37.8" font-family="Times,serif" font-size="14.00">AD Auth</text>
</g>
<!-- dbaas -->
<g id="node3" class="node"><title>dbaas</title>
<polygon fill="none" stroke="black" points="232.831,-154 232.831,-212 293.169,-212 293.169,-154 232.831,-154"/>
<text text-anchor="middle" x="263" y="-196.8" font-family="Times,serif" font-size="14.00">uwsgi</text>
<polyline fill="none" stroke="black" points="232.831,-190 293.169,-190 "/>
<text text-anchor="middle" x="263" y="-174.8" font-family="Times,serif" font-size="14.00">DB4Sci</text>
<text text-anchor="middle" x="263" y="-160.8" font-family="Times,serif" font-size="14.00">Flask</text>
</g>
<!-- adauth&#45;&gt;dbaas -->
<g id="edge8" class="edge"><title>adauth&#45;&gt;dbaas</title>
<path fill="none" stroke="black" d="M168.187,-72.5277C172.836,-77.6616 177.579,-82.959 182,-88 201.05,-109.723 222.076,-134.734 237.79,-153.638"/>
</g>
<!-- mydb_admin -->
<g id="node4" class="node"><title>mydb_admin</title>
<polygon fill="lightblue" stroke="black" points="307.883,-289 218.117,-289 218.117,-239 307.883,-239 307.883,-289"/>
<text text-anchor="middle" x="263" y="-273.8" font-family="Times,serif" font-size="14.00">PostgreSQL</text>
<text text-anchor="middle" x="263" y="-259.8" font-family="Times,serif" font-size="14.00">mydb_admin</text>
<text text-anchor="middle" x="263" y="-245.8" font-family="Times,serif" font-size="14.00">Port 32009</text>
</g>
<!-- dbaas&#45;&gt;mydb_admin -->
<g id="edge2" class="edge"><title>dbaas:f2:s&#45;&gt;mydb_admin</title>
<path fill="none" stroke="black" d="M269.455,-235.7C269.893,-226.898 269.843,-217.199 269.304,-208.604"/>
<polygon fill="black" stroke="black" points="265.951,-235.62 268.678,-245.858 272.931,-236.154 265.951,-235.62"/>
</g>
<!-- db1 -->
<g id="node5" class="node"><title>db1</title>
<polygon fill="lightblue" stroke="black" points="438,-136 344,-136 344,-100 438,-100 438,-136"/>
<text text-anchor="middle" x="391" y="-120.8" font-family="Times,serif" font-size="14.00">PostgreSQL</text>
<text text-anchor="middle" x="391" y="-106.8" font-family="Times,serif" font-size="14.00">Port 32010</text>
</g>
<!-- dbaas&#45;&gt;db1 -->
<g id="edge6" class="edge"><title>dbaas:f2&#45;&gt;db1</title>
<path fill="none" stroke="black" d="M294,-172C295.673,-172 324.225,-155.851 349.758,-141.216"/>
<polygon fill="black" stroke="black" points="351.684,-144.146 358.614,-136.131 348.199,-138.075 351.684,-144.146"/>
</g>
<!-- db2 -->
<g id="node6" class="node"><title>db2</title>
<polygon fill="#ff7256" stroke="black" points="438,-190 344,-190 344,-154 438,-154 438,-190"/>
<text text-anchor="middle" x="391" y="-174.8" font-family="Times,serif" font-size="14.00">MariaDB</text>
<text text-anchor="middle" x="391" y="-160.8" font-family="Times,serif" font-size="14.00">Port 32011</text>
</g>
<!-- dbaas&#45;&gt;db2 -->
<g id="edge5" class="edge"><title>dbaas:f2&#45;&gt;db2</title>
<path fill="none" stroke="black" d="M294,-172C306.757,-172 320.467,-172 333.42,-172"/>
<polygon fill="black" stroke="black" points="333.613,-175.5 343.613,-172 333.613,-168.5 333.613,-175.5"/>
</g>
<!-- db3 -->
<g id="node7" class="node"><title>db3</title>
<polygon fill="lightgreen" stroke="black" points="438,-244 344,-244 344,-208 438,-208 438,-244"/>
<text text-anchor="middle" x="391" y="-228.8" font-family="Times,serif" font-size="14.00">Mongo</text>
<text text-anchor="middle" x="391" y="-214.8" font-family="Times,serif" font-size="14.00">Port 32012</text>
</g>
<!-- dbaas&#45;&gt;db3 -->
<g id="edge4" class="edge"><title>dbaas:f2&#45;&gt;db3</title>
<path fill="none" stroke="black" d="M294,-172C295.673,-172 324.225,-188.149 349.758,-202.784"/>
<polygon fill="black" stroke="black" points="348.199,-205.925 358.614,-207.869 351.684,-199.854 348.199,-205.925"/>
</g>
<!-- db4 -->
<g id="node8" class="node"><title>db4</title>
<polygon fill="#66b245" stroke="black" points="438,-298 344,-298 344,-262 438,-262 438,-298"/>
<text text-anchor="middle" x="391" y="-282.8" font-family="Times,serif" font-size="14.00">Neo4j</text>
<text text-anchor="middle" x="391" y="-268.8" font-family="Times,serif" font-size="14.00">Port 32013</text>
</g>
<!-- dbaas&#45;&gt;db4 -->
<g id="edge3" class="edge"><title>dbaas:f2&#45;&gt;db4</title>
<path fill="none" stroke="black" d="M294,-172C336.306,-172 313.754,-223.42 344,-253 344.931,-253.91 345.899,-254.802 346.896,-255.675"/>
<polygon fill="black" stroke="black" points="344.964,-258.607 355.009,-261.976 349.258,-253.078 344.964,-258.607"/>
</g>
<!-- nginx&#45;&gt;dbaas -->
<g id="edge1" class="edge"><title>nginx&#45;&gt;dbaas:f0</title>
<path fill="none" stroke="black" d="M174.949,-201C192.134,-201 213.153,-201 232,-201"/>
</g>
</g>
</svg>
